<svg width="48" height="48" viewBox="0 0 48 48" fill="none" xmlns="http://www.w3.org/2000/svg">
<path d="M14 29.5C16.5653 27.0956 20.2886 25 24.47 25C28.9779 25 32.3794 26.7625 34.94 29.5" stroke="#152C5B" stroke-width="3" stroke-linecap="round"/>
<path d="M9 22C12.6752 18.7942 18.0094 16 24 16C30.4584 16 35.3315 18.35 39 22" stroke="#152C5B" stroke-width="3" stroke-linecap="round"/>
<path d="M6 12C10.5328 8.25989 17.1116 5 24.5 5C32.4653 5 38.4755 7.74171 43 12" stroke="#152C5B" stroke-width="3" stroke-linecap="round"/>
<path d="M28.5 38C28.5 40.4853 26.4853 42.5 24 42.5C21.5147 42.5 19.5 40.4853 19.5 38C19.5 35.5147 21.5147 33.5 24 33.5C26.4853 33.5 28.5 35.5147 28.5 38Z" stroke="#FF498B" stroke-width="3"/>
</svg>
