<svg width="48" height="48" viewBox="0 0 48 48" fill="none" xmlns="http://www.w3.org/2000/svg">
<path d="M16 13V18" stroke="#152C5B" stroke-width="3" stroke-linecap="round"/>
<path d="M31 13V18" stroke="#152C5B" stroke-width="3" stroke-linecap="round"/>
<path d="M5.95619 20.9298C6.36977 20.0567 7.24942 19.5 8.21554 19.5H37.6796C38.5049 19.5 39.2769 19.9072 39.7429 20.5883L42.4797 24.5883C43.615 26.2475 42.4269 28.5 40.4165 28.5H6.3208C4.48551 28.5 3.27579 26.5884 4.06145 24.9298L5.95619 20.9298Z" stroke="#152C5B" stroke-width="3"/>
<mask id="path-4-inside-1" fill="white">
<path d="M9 46C11.2091 46 13 44.2091 13 42L13 28C13 27.4477 12.5523 27 12 27L6 27C5.44772 27 5 27.4477 5 28L5 42C5 44.2091 6.79086 46 9 46Z"/>
</mask>
<path d="M9 46C11.2091 46 13 44.2091 13 42L13 28C13 27.4477 12.5523 27 12 27L6 27C5.44772 27 5 27.4477 5 28L5 42C5 44.2091 6.79086 46 9 46Z" stroke="#152C5B" stroke-width="6" mask="url(#path-4-inside-1)"/>
<mask id="path-5-inside-2" fill="white">
<path d="M16 14C18.2091 14 20 12.2091 20 10L20 5C20 4.44772 19.5523 4 19 4L13 4C12.4477 4 12 4.44772 12 5L12 10C12 12.2091 13.7909 14 16 14Z"/>
</mask>
<path d="M16 14C18.2091 14 20 12.2091 20 10L20 5C20 4.44772 19.5523 4 19 4L13 4C12.4477 4 12 4.44772 12 5L12 10C12 12.2091 13.7909 14 16 14Z" stroke="#FF498B" stroke-width="6" mask="url(#path-5-inside-2)"/>
<mask id="path-6-inside-3" fill="white">
<path d="M31 14C33.2091 14 35 12.2091 35 10L35 5C35 4.44772 34.5523 4 34 4L28 4C27.4477 4 27 4.44772 27 5L27 10C27 12.2091 28.7909 14 31 14Z"/>
</mask>
<path d="M31 14C33.2091 14 35 12.2091 35 10L35 5C35 4.44772 34.5523 4 34 4L28 4C27.4477 4 27 4.44772 27 5L27 10C27 12.2091 28.7909 14 31 14Z" stroke="#FF498B" stroke-width="6" mask="url(#path-6-inside-3)"/>
<mask id="path-7-inside-4" fill="white">
<path d="M39 46C41.2091 46 43 44.2091 43 42L43 28C43 27.4477 42.5523 27 42 27L36 27C35.4477 27 35 27.4477 35 28L35 42C35 44.2091 36.7909 46 39 46Z"/>
</mask>
<path d="M39 46C41.2091 46 43 44.2091 43 42L43 28C43 27.4477 42.5523 27 42 27L36 27C35.4477 27 35 27.4477 35 28L35 42C35 44.2091 36.7909 46 39 46Z" stroke="#152C5B" stroke-width="6" mask="url(#path-7-inside-4)"/>
</svg>
